# xmcd CD database file
#
# Track frame offsets:
#	150
#	13055
#	28050
#	42021
#	56454
#	68682
#	80380
#	93383
#	106051
#	118769
#	131927
#	144114
#	155680
#	164369
#	177110
#	190750
#	203625
#	218092
#	231288
#	245402
#	258546
#	271418
#	284492
#	298454
#	312041
#
# Disc length: 4321 seconds
#
# Revision: 1
# Processed by: cddbd v1.4PL0 Copyright (c) Steve Scherf et al.
# Submitted via: CDex 1.40Release
#
DISCID=6b10df19
DTITLE=Dinah Washington - Golden Greats (1/3)
DYEAR=2002
DGENRE=Blues
TTITLE0=All or nothing
TTITLE1=Blow top blues
TTITLE2=Long John blues
TTITLE3=I know how to do it
TTITLE4=A slick chick (on the mellow side)
TTITLE5=Early in the morning
TTITLE6=Don't come knocking at my door
TTITLE7=Mean and evil blues
TTITLE8=Joy juice
TTITLE9=Begging mama blues
TTITLE10=Oo-wee walkie talkie
TTITLE11=There's got to be a change
TTITLE12=New York, Chicago and Los Angeles
TTITLE13=Baby get lost
TTITLE14=Salty papa blues
TTITLE15=Evil gal blues
TTITLE16=Resolution blues
TTITLE17=Postman blues
TTITLE18=My lovin' papa
TTITLE19=Blues for a day
TTITLE20=Wise woman blues
TTITLE21=Love me with misery
TTITLE22=Ain't nobody's business but mine
TTITLE23=Please find me someone to love
TTITLE24=What's the matter with baby
EXTD=YEAR: 2002 ID3G: 0
EXTT0=
EXTT1=
EXTT2=
EXTT3=
EXTT4=
EXTT5=
EXTT6=
EXTT7=
EXTT8=
EXTT9=
EXTT10=
EXTT11=
EXTT12=
EXTT13=
EXTT14=
EXTT15=
EXTT16=
EXTT17=
EXTT18=
EXTT19=
EXTT20=
EXTT21=
EXTT22=
EXTT23=
EXTT24=
PLAYORDER=
